<?xml version="1.0" encoding="UTF-8" standalone="no"?>
<svg
   xmlns:dc="http://purl.org/dc/elements/1.1/"
   xmlns:cc="http://creativecommons.org/ns#"
   xmlns:rdf="http://www.w3.org/1999/02/22-rdf-syntax-ns#"
   xmlns:svg="http://www.w3.org/2000/svg"
   xmlns="http://www.w3.org/2000/svg"
   xmlns:sodipodi="http://sodipodi.sourceforge.net/DTD/sodipodi-0.dtd"
   xmlns:inkscape="http://www.inkscape.org/namespaces/inkscape"
   version="1.1"
   width="24"
   height="24"
   viewBox="0 0 24.00 24.00"
   enable-background="new 0 0 24.00 24.00"
   xml:space="preserve"
   id="svg2"
   inkscape:version="0.48.2 r9819"
   sodipodi:docname="isk.svg"><metadata
   id="metadata22"><rdf:RDF><cc:Work
       rdf:about=""><dc:format>image/svg+xml</dc:format><dc:type
         rdf:resource="http://purl.org/dc/dcmitype/StillImage" /><dc:title /></cc:Work></rdf:RDF></metadata><defs
   id="defs20" /><sodipodi:namedview
   pagecolor="#ffffff"
   bordercolor="#666666"
   borderopacity="1"
   objecttolerance="10"
   gridtolerance="10"
   guidetolerance="10"
   inkscape:pageopacity="0"
   inkscape:pageshadow="2"
   inkscape:window-width="1920"
   inkscape:window-height="1027"
   id="namedview18"
   showgrid="false"
   inkscape:zoom="19.666667"
   inkscape:cx="20.423614"
   inkscape:cy="10.286034"
   inkscape:window-x="-8"
   inkscape:window-y="-8"
   inkscape:window-maximized="1"
   inkscape:current-layer="svg2" />
	
	
	
	
	
	
	
<g
   style="font-size:27.30975723px;font-style:normal;font-weight:bold;line-height:122.00000286%;letter-spacing:0px;word-spacing:0px;fill:#000000;fill-opacity:1;stroke:none;font-family:Sans;-inkscape-font-specification:Sans Bold"
   id="text2999" /><path
   id="rect3006"
   style="fill:#ffffff;fill-opacity:1;stroke:none"
   d="m 7.8211493,11.209 8.3577017,0 0,1.582001 -8.3577017,0 z m -0.7603282,6.865021 c 1.3601516,-2.178022 2.4624974,-3.973779 3.3070409,-5.387276 0.844535,-1.413487 1.96466,-3.2803628 3.36038,-5.6006341 L 7.5143103,7.0501563 7.2587735,9.1232816 6.6053662,9.2166256 c 0,0 0.054028,-2.0416048 -0.1859977,-3.3306506 l 0.040005,-0.1200135 c 1.7779758,0.026682 3.4537194,0.040017 5.0272355,0.040004 2.435822,1.24e-5 3.432973,-0.013323 5.148734,-0.040004 l 0.106679,0.1466832 c -1.173478,1.893558 -2.262489,3.6870925 -3.267037,5.3806093 -1.004566,1.69353 -2.102467,3.553738 -3.293706,5.580631 l 6.505618,0 0.228673,-1.937407 0.706746,-0.09334 c 0,0 -0.01947,1.919629 -0.08169,3.297561 l -0.09334,0.09334 c -1.529073,-0.02667 -3.231486,-0.04 -5.107244,-0.04 -2.6225236,0 -3.7279334,0.01333 -5.1858736,0.04 z"
   inkscape:connector-curvature="0"
   sodipodi:nodetypes="ccccccscccccccccsccccccscc" /></svg>