<?xml version="1.0" encoding="UTF-8" standalone="no"?>
<svg
   xmlns:dc="http://purl.org/dc/elements/1.1/"
   xmlns:cc="http://creativecommons.org/ns#"
   xmlns:rdf="http://www.w3.org/1999/02/22-rdf-syntax-ns#"
   xmlns:svg="http://www.w3.org/2000/svg"
   xmlns="http://www.w3.org/2000/svg"
   xmlns:sodipodi="http://sodipodi.sourceforge.net/DTD/sodipodi-0.dtd"
   xmlns:inkscape="http://www.inkscape.org/namespaces/inkscape"
   version="1.1"
   width="24"
   height="24"
   viewBox="0 0 24.00 24.00"
   enable-background="new 0 0 24.00 24.00"
   xml:space="preserve"
   id="svg2"
   inkscape:version="0.48.2 r9819"
   sodipodi:docname="isk_outline.svg"><metadata
   id="metadata22"><rdf:RDF><cc:Work
       rdf:about=""><dc:format>image/svg+xml</dc:format><dc:type
         rdf:resource="http://purl.org/dc/dcmitype/StillImage" /><dc:title></dc:title></cc:Work></rdf:RDF></metadata><defs
   id="defs20" /><sodipodi:namedview
   pagecolor="#ffffff"
   bordercolor="#666666"
   borderopacity="1"
   objecttolerance="10"
   gridtolerance="10"
   guidetolerance="10"
   inkscape:pageopacity="0"
   inkscape:pageshadow="2"
   inkscape:window-width="1920"
   inkscape:window-height="1027"
   id="namedview18"
   showgrid="false"
   inkscape:zoom="19.666667"
   inkscape:cx="20.423614"
   inkscape:cy="10.286034"
   inkscape:window-x="-8"
   inkscape:window-y="-8"
   inkscape:window-maximized="1"
   inkscape:current-layer="svg2" />
	
	
	<path
   d="M 12,2C 17.5228,2 22,6.47716 22,12C 22,17.5228 17.5228,22 12,22C 6.47715,22 2,17.5228 2,12C 2,6.47716 6.47715,2 12,2 Z M 12,4C 7.58172,4 4,7.58172 4,12C 4,16.4183 7.58172,20 12,20C 16.4183,20 20,16.4183 20,12C 20,7.58172 16.4183,4 12,4 Z "
   id="path8"
   stroke-linejoin="round"
   fill-opacity="1"
   fill="#5389A4"
   style="fill:#000000" />
	
	
	
	
<g
   style="font-size:27.30975722999999900px;font-style:normal;font-weight:bold;line-height:122.00000286000000000%;letter-spacing:0px;word-spacing:0px;fill:#000000;fill-opacity:1;stroke:none;font-family:Sans;-inkscape-font-specification:Sans Bold"
   id="text2999" /><path
   id="rect3006"
   style="fill:#000000;fill-opacity:1;stroke:none"
   d="m 8.5404932,11.344486 6.9261538,0 0,1.311029 -6.9261538,0 z m -0.6300954,5.689147 c 1.1271781,-1.80496 2.0407088,-3.293131 2.7405952,-4.464517 0.699878,-1.171378 1.628143,-2.7184862 2.784797,-4.6413301 L 8.2862111,7.8979898 8.0744439,9.61602 7.5329554,9.6933756 c 0,0 0.044774,-1.6919087 -0.1541391,-2.7601605 l 0.033153,-0.099457 c 1.4734355,0.022112 2.86215,0.033163 4.166146,0.033152 2.018603,1.03e-5 2.844957,-0.011041 4.266834,-0.033152 l 0.08841,0.1215586 c -0.972479,1.5692201 -1.874959,3.0555493 -2.707443,4.4589923 -0.832499,1.403454 -1.742346,2.945036 -2.729544,4.624753 l 5.391304,0 0.189505,-1.605558 0.585691,-0.07735 c -0.13262,1.156652 -0.01613,1.590826 -0.0677,2.732739 l -0.07735,0.07735 c -1.267166,-0.0221 -2.677981,-0.03315 -4.23245,-0.03315 -2.173325,0 -3.0893948,0.01105 -4.2976119,0.03315 z"
   inkscape:connector-curvature="0"
   sodipodi:nodetypes="ccccccscccccccccsccccccscc" /></svg>